HIERARCHY
ROOT Hips
{
	OFFSET -3.958830 18.904000 13.208200
	CHANNELS 6 Xposition Yposition Zposition Zrotation Yrotation Xrotation 
	JOINT LHipJoint
	{
		OFFSET 0.000000 0.000000 0.000000
		CHANNELS 3 Zrotation Yrotation Xrotation
		JOINT LeftUpLeg
		{
			OFFSET 1.800000 -1.400000 0.085000
			CHANNELS 3 Zrotation Yrotation Xrotation
			JOINT LeftLeg
			{
				OFFSET 2.215000 -6.000000 0.000000
				CHANNELS 3 Zrotation Yrotation Xrotation
				JOINT LeftFoot
				{
					OFFSET 2.500000 -6.900000 0.000000
					CHANNELS 3 Zrotation Yrotation Xrotation
					JOINT LeftToeBase
					{
						OFFSET 0.200000 -0.500000 1.950000
						CHANNELS 3 Zrotation Yrotation Xrotation
						End Site
						{
							OFFSET 0.000000 0.000000 0.000000
						}
					}
				}
			}
		}
	}
	JOINT RHipJoint
	{
		OFFSET 0.000000 0.000000 0.000000
		CHANNELS 3 Zrotation Yrotation Xrotation
		JOINT RightUpLeg
		{
			OFFSET -1.800000 -1.400000 0.085000
			CHANNELS 3 Zrotation Yrotation Xrotation
			JOINT RightLeg
			{
				OFFSET -2.215000 -6.000000 0.000000
				CHANNELS 3 Zrotation Yrotation Xrotation
				JOINT RightFoot
				{
					OFFSET -2.500000 -6.900000 0.000000
					CHANNELS 3 Zrotation Yrotation Xrotation
					JOINT RightToeBase
					{
						OFFSET -0.200000 -0.500000 1.950000
						CHANNELS 3 Zrotation Yrotation Xrotation
						End Site
						{
							OFFSET 0.000000 0.000000 0.000000
						}
					}
				}
			}
		}
	}
	JOINT LowerBack
	{
		OFFSET 0.000000 0.000000 0.000000
		CHANNELS 3 Zrotation Yrotation Xrotation
		JOINT Spine
		{
			OFFSET -0.087000 1.940000 -0.288900
			CHANNELS 3 Zrotation Yrotation Xrotation
			JOINT Spine1
			{
				OFFSET 0.000000 1.950000 0.060000
				CHANNELS 3 Zrotation Yrotation Xrotation
				JOINT Neck
				{
					OFFSET 0.000000 0.000000 0.000000
					CHANNELS 3 Zrotation Yrotation Xrotation
					JOINT Neck1
					{
						OFFSET 0.000000 1.600000 0.340000
						CHANNELS 3 Zrotation Yrotation Xrotation
						JOINT Head
						{
							OFFSET 0.000000 1.667000 -0.240000
							CHANNELS 3 Zrotation Yrotation Xrotation
							End Site
							{
								OFFSET 0.000000 0.000000 0.000000
							}
						}
					}
				}
				JOINT LeftShoulder
				{
					OFFSET 0.000000 0.000000 0.000000
					CHANNELS 3 Zrotation Yrotation Xrotation
					JOINT LeftArm
					{
						OFFSET 2.700000 1.550000 -0.730000
						CHANNELS 3 Zrotation Yrotation Xrotation
						JOINT LeftForeArm
						{
							OFFSET 5.450000 0.000000 0.000000
							CHANNELS 3 Zrotation Yrotation Xrotation
							JOINT LeftHand
							{
								OFFSET 3.450000 0.000000 0.000000
								CHANNELS 3 Zrotation Yrotation Xrotation
								JOINT LeftHandIndex1
								{
									OFFSET 0.750000 0.000000 0.000000
									CHANNELS 3 Zrotation Yrotation Xrotation
									End Site
									{
										OFFSET 0.000000 0.000000 0.000000
									}
								}
							}
						}
					}
				}
				JOINT RightShoulder
				{
					OFFSET 0.000000 0.000000 0.000000
					CHANNELS 3 Zrotation Yrotation Xrotation
					JOINT RightArm
					{
						OFFSET -2.700000 1.550000 -0.730000
						CHANNELS 3 Zrotation Yrotation Xrotation
						JOINT RightForeArm
						{
							OFFSET -5.450000 0.000000 0.000000
							CHANNELS 3 Zrotation Yrotation Xrotation
							JOINT RightHand
							{
								OFFSET -3.450000 0.000000 0.000000
								CHANNELS 3 Zrotation Yrotation Xrotation
								JOINT RightHandIndex1
								{
									OFFSET -0.750000 0.000000 0.000000
									CHANNELS 3 Zrotation Yrotation Xrotation
									End Site
									{
										OFFSET 0.000000 0.000000 0.000000
									}
								}
							}
						}
					}
				}
			}
		}
	}
}
MOTION
Frames: 14
Frame Time: 0.016667
0.515490 17.607940 -1.655060 -1.541726 1.468060 2.318408 -15.008651 13.171017 2.624752 5.859753 -0.782297 -11.436482 -6.238319 5.071441 7.916525 -0.429653 4.185923 3.524292 -0.411290 -0.532920 -0.521530 18.446859 -11.217572 2.350652 -7.142956 0.768690 -13.347638 5.172704 -4.904513 13.731143 0.333659 -3.912022 3.272918 -0.033780 1.096990 0.125380 -4.090258 -0.945010 -6.365368 10.567783 -1.596769 0.560755 -6.862918 -1.787928 8.412975 1.571574 -6.671067 -6.941032 -11.805998 6.788409 25.247905 -8.066790 2.649530 9.996670 -17.426776 0.929811 1.130634 -50.665260 -5.591032 -1.917751 3.862507 -25.083720 -1.485436 -4.539411 2.839393 -0.259000 0.813500 -0.705380 0.208140 14.175348 4.197913 4.671818 49.185481 12.689370 1.035607 122.626906 71.016259 94.210759 2.171809 -0.427884 -0.484340 0.402320 0.398940 0.110000 
0.511540 17.605750 -1.657560 -1.490253 1.387754 2.212963 -15.006608 13.176055 2.632654 5.928506 -0.746256 -11.261801 -6.372869 5.100503 7.786095 -0.425369 4.208887 3.514908 -0.423060 -0.550990 -0.516360 18.448620 -11.209982 2.350191 -7.131907 0.745984 -13.173318 5.062965 -4.868636 13.543105 0.332066 -3.896946 3.277868 -0.046580 1.088390 0.123900 -4.094737 -0.970959 -6.377256 10.661132 -1.624176 0.595946 -7.250031 -1.776438 8.572548 1.658858 -6.924261 -7.121334 -12.373753 7.048753 25.694765 -8.458490 2.966560 10.134540 -17.092011 0.729716 1.206441 -50.322612 -5.772459 -1.800756 4.223311 -24.941795 -1.527282 -4.537942 2.826098 -0.247480 0.808700 -0.699160 0.198520 13.654066 4.581539 4.867460 49.463695 13.223681 1.519637 123.179452 70.773498 94.634696 2.161638 -0.473927 -0.489110 0.400690 0.404560 0.101790 
0.507680 17.606430 -1.663920 -1.543170 1.352398 1.978434 -14.996322 13.188453 2.641348 6.150384 -0.684021 -11.016175 -6.592729 5.169575 7.672120 -0.422760 4.251497 3.498414 -0.445490 -0.581690 -0.519430 18.457941 -11.200896 2.350482 -6.996776 0.705966 -12.856398 4.853694 -4.820317 13.353848 0.330993 -3.876306 3.292247 -0.067640 1.080820 0.112140 -4.122782 -1.014274 -6.398138 11.080416 -1.687287 0.721058 -7.991035 -1.771184 8.829240 1.802049 -7.390793 -7.433656 -13.479975 7.551838 26.647857 -8.855340 3.327660 10.426700 -16.775194 0.186005 1.364715 -49.558598 -6.134532 -1.571107 4.999100 -24.425396 -1.626833 -4.531947 2.794325 -0.224110 0.798650 -0.694370 0.185310 13.010414 5.430189 5.181649 49.514830 14.140179 2.340973 123.712964 70.303259 94.735917 2.159968 -0.530648 -0.502790 0.407330 0.417530 0.091000 
0.503270 17.606750 -1.672850 -1.628035 1.446549 1.617163 -14.981387 13.203928 2.650559 6.407102 -0.629387 -10.695988 -6.680107 5.183336 7.439522 -0.428481 4.284736 3.480079 -0.453640 -0.612480 -0.502670 18.471637 -11.190119 2.353147 -6.851992 0.642278 -12.348288 4.677046 -4.793249 13.126043 0.312205 -3.859361 3.294879 -0.091060 1.054700 0.108340 -4.166200 -1.069260 -6.427441 11.671247 -1.789597 0.904129 -8.976560 -1.787271 9.230530 2.020447 -7.919618 -7.880080 -14.887260 8.227283 28.183130 -9.286580 3.727220 10.612700 -16.341997 -0.627004 1.617663 -48.584373 -6.634438 -1.273896 5.920751 -23.795424 -1.759432 -4.509482 2.766222 -0.177430 0.771440 -0.673500 0.171270 12.092795 6.576034 5.577400 49.817980 15.533423 3.464038 123.889759 69.805693 94.301817 2.173540 -0.567884 -0.513790 0.406740 0.426180 0.070650 
0.496410 17.605510 -1.679910 -1.729952 1.607358 1.234380 -14.958538 13.198000 2.655664 6.741037 -0.563586 -10.309551 -6.839669 5.208587 7.147723 -0.425426 4.319245 3.455986 -0.456650 -0.629260 -0.474800 18.495210 -11.190052 2.355623 -6.709469 0.572396 -11.828696 4.566377 -4.794085 12.976954 0.287047 -3.851936 3.284879 -0.108920 1.019540 0.107470 -4.236262 -1.067055 -6.449002 12.402855 -1.865215 1.019477 -10.298023 -1.783188 9.737701 2.323290 -8.331862 -8.289762 -16.153390 8.938094 29.992566 -9.813320 4.219150 10.630080 -15.764112 -1.360117 1.818273 -47.354608 -7.355638 -0.864742 6.667547 -23.075945 -1.827783 -4.490921 2.735000 -0.137400 0.742170 -0.642550 0.151050 10.844057 7.536818 5.899038 50.912923 17.487821 4.996279 122.544407 69.688541 92.284849 2.235263 -0.505429 -0.515660 0.403340 0.429600 0.052960 
0.487960 17.603040 -1.688440 -1.867505 1.959384 0.854510 -14.940553 13.195587 2.653413 7.105254 -0.517667 -10.097163 -7.030069 5.280334 7.111638 -0.418776 4.366304 3.427295 -0.467270 -0.659310 -0.456590 18.514800 -11.183005 2.363510 -6.499762 0.499901 -11.259714 4.513349 -4.806676 12.776703 0.263756 -3.854847 3.273091 -0.135570 0.994740 0.112740 -4.295942 -1.078140 -6.466561 13.000976 -1.975650 1.078868 -11.542585 -1.823156 10.289252 2.662999 -8.530000 -8.745770 -17.110211 9.842124 32.185487 -10.112780 4.866670 11.050520 -15.030469 -2.231784 2.127857 -46.355070 -8.125092 -0.426391 7.531635 -22.170471 -1.919489 -4.482083 2.713913 -0.102110 0.719640 -0.619620 0.132080 9.384880 8.476742 6.141558 52.186226 19.802434 6.787516 119.242295 70.006191 88.107278 2.363065 -0.340162 -0.516350 0.393720 0.439930 0.037290 
0.478880 17.604050 -1.697980 -2.088544 2.446329 0.497256 -14.918896 13.178418 2.646163 7.568619 -0.488142 -9.976205 -7.223740 5.357205 7.093290 -0.429174 4.413760 3.392497 -0.485800 -0.693290 -0.445760 18.539796 -11.181402 2.373995 -6.207446 0.427057 -10.717682 4.422768 -4.806313 12.579317 0.248088 -3.852314 3.263907 -0.156600 0.972850 0.102920 -4.370100 -1.051105 -6.477705 13.692381 -2.074893 1.120431 -13.014064 -1.839624 10.806682 3.079514 -8.504582 -9.145739 -17.648657 10.913832 34.733727 -10.023360 5.596080 11.457420 -14.325801 -3.133090 2.397200 -45.154095 -9.022681 0.077780 8.229123 -21.002828 -1.961077 -4.481009 2.679384 -0.064200 0.696230 -0.605870 0.104400 7.778604 9.244026 6.283023 53.790739 22.331818 9.208020 113.186048 70.761569 80.678737 2.602435 -0.102729 -0.530060 0.395180 0.461260 0.016070 
0.466770 17.606570 -1.710760 -2.341687 3.100329 0.134721 -14.900953 13.153877 2.642554 8.072441 -0.478693 -9.890946 -7.393458 5.408735 7.007678 -0.437570 4.451271 3.358046 -0.490340 -0.717550 -0.413400 18.561199 -11.187363 2.382691 -5.783362 0.374376 -10.284078 4.213734 -4.796836 12.577008 0.226557 -3.844260 3.251802 -0.176720 0.936870 0.104750 -4.435205 -0.998228 -6.489591 14.270166 -2.129588 1.162713 -14.379785 -1.806393 11.346132 3.582533 -8.223731 -9.493458 -17.680865 11.747720 37.746557 -10.264240 6.491970 11.840170 -13.712507 -4.136744 2.655337 -43.850398 -10.092177 0.630259 8.700197 -19.619055 -1.948600 -4.481483 2.650796 -0.024900 0.672260 -0.581160 0.076290 6.098528 9.949277 6.363909 55.417449 24.988260 12.341579 105.537751 71.913980 72.059812 2.870799 0.003631 -0.533020 0.383330 0.471260 -0.010430 
0.453310 17.609110 -1.723740 -2.562833 3.837774 -0.233781 -14.883778 13.129201 2.641116 8.568968 -0.476387 -9.876857 -7.637996 5.499910 7.097468 -0.466859 4.510116 3.310850 -0.495020 -0.748640 -0.383780 18.579572 -11.199685 2.392198 -5.388236 0.335821 -9.905308 4.014975 -4.807934 12.675729 0.205788 -3.845527 3.231645 -0.193560 0.901540 0.109270 -4.495880 -0.935979 -6.509636 14.661103 -2.114006 1.264467 -15.544688 -1.678119 11.845401 4.103573 -7.758466 -9.791266 -17.298297 12.479633 41.083105 -10.443880 7.395330 12.198030 -13.388490 -5.298295 2.904334 -42.415155 -11.229266 1.169780 9.029889 -18.165710 -1.927462 -4.485931 2.623103 0.026360 0.649650 -0.560040 0.046040 4.705155 10.694678 6.426849 56.656987 27.398369 15.517936 96.507519 72.949392 63.260630 2.967523 -0.236384 -0.545330 0.370770 0.490050 -0.045350 
0.438950 17.609690 -1.736670 -2.657359 4.835165 -0.459438 -14.871806 13.102173 2.652366 8.918388 -0.503819 -9.978951 -7.932184 5.574348 7.119529 -0.486838 4.556667 3.264683 -0.509450 -0.789600 -0.370090 18.592016 -11.209908 2.398067 -5.047727 0.319447 -9.673976 3.754472 -4.796116 12.813867 0.201675 -3.852287 3.208550 -0.215710 0.872490 0.120880 -4.545843 -0.882885 -6.545317 14.708289 -2.070610 1.346464 -16.408626 -1.521778 12.231635 4.579245 -7.133947 -10.012486 -16.414480 12.967656 44.245211 -10.464330 8.297850 13.112030 -13.136641 -6.443217 3.126136 -41.043396 -12.468889 1.720085 8.857180 -16.792573 -1.828330 -4.503446 2.627070 0.053920 0.640160 -0.555980 0.013250 3.527730 11.342581 6.433662 57.576643 29.438448 17.680925 87.141018 72.404840 55.053877 2.776124 -0.825671 -0.549320 0.335950 0.514650 -0.076200 
0.424120 17.610620 -1.751390 -2.719690 5.836088 -0.571686 -14.858206 13.067541 2.669509 9.227995 -0.560187 -10.136369 -8.177277 5.596481 7.004545 -0.531274 4.610215 3.218393 -0.525950 -0.839320 -0.357160 18.606211 -11.222010 2.398755 -4.748876 0.342887 -9.659171 3.479075 -4.788930 13.073021 0.199229 -3.846970 3.181897 -0.234470 0.859670 0.138120 -4.602028 -0.818962 -6.583442 14.726071 -1.999727 1.453500 -17.253496 -1.330245 12.538473 4.985239 -6.427507 -10.195645 -15.227808 13.372935 47.361749 -10.057720 8.969390 13.640160 -12.624888 -7.498314 3.345870 -39.978700 -13.695088 2.259194 8.537311 -15.611195 -1.768737 -4.530707 2.615179 0.096670 0.633200 -0.551940 -0.020470 2.235426 11.816299 6.341660 58.924080 31.346513 18.627576 77.984793 69.744861 46.998228 2.488014 -1.339077 -0.566540 0.318610 0.551840 -0.108380 
0.410990 17.615060 -1.762970 -2.797418 6.756785 -0.725015 -14.840988 13.040447 2.669372 9.412434 -0.611210 -10.252788 -8.145234 5.576480 7.033739 -0.599850 4.630258 3.171974 -0.531860 -0.871040 -0.336630 18.623134 -11.241854 2.407985 -4.541379 0.341149 -9.561788 3.386436 -4.820707 13.217473 0.193829 -3.841271 3.159861 -0.237390 0.832500 0.140040 -4.667715 -0.745548 -6.615015 14.824915 -1.884253 1.648543 -17.965276 -1.093344 12.782454 5.297135 -5.707854 -10.406922 -13.996793 13.784141 50.717147 -9.384820 9.583020 13.626570 -12.308555 -8.697489 3.635898 -38.980191 -14.746500 2.696946 8.257224 -14.629624 -1.743199 -4.544646 2.585719 0.152860 0.614350 -0.540430 -0.059010 1.311961 12.386742 6.193360 60.357079 33.011001 18.790967 69.961384 65.548645 39.347095 2.290369 -1.567632 -0.591180 0.314970 0.587830 -0.148450 
0.398240 17.622860 -1.776580 -2.930267 7.873499 -0.840171 -14.820247 13.011261 2.658680 9.575768 -0.700896 -10.659728 -8.005376 5.550101 7.326857 -0.676513 4.616423 3.132285 -0.515380 -0.871030 -0.309900 18.642753 -11.271076 2.423820 -4.268806 0.335835 -9.496686 3.329927 -4.853792 13.382973 0.178678 -3.833336 3.136909 -0.223520 0.798110 0.140780 -4.747100 -0.650001 -6.643823 15.021224 -1.822430 1.903389 -18.610781 -0.906148 12.960775 5.491400 -4.960251 -10.539483 -12.590642 13.858189 53.855541 -8.412380 9.786170 13.141860 -12.043143 -9.836016 3.886683 -38.137670 -15.744073 3.060873 7.793413 -13.933282 -1.721733 -4.543723 2.561631 0.210490 0.586910 -0.520040 -0.088330 0.654904 12.839880 5.989851 62.120702 34.386464 18.818583 63.102056 60.509216 32.304582 2.185101 -1.627532 -0.608000 0.315290 0.610910 -0.183250 
0.386670 17.630090 -1.791380 -3.012530 8.936124 -0.793295 -14.806939 12.970178 2.660294 9.658077 -0.815148 -11.177969 -7.945676 5.500056 7.472522 -0.744155 4.587054 3.102403 -0.497510 -0.864930 -0.285970 18.655341 -11.297336 2.438127 -4.009666 0.366184 -9.643632 3.281367 -4.868442 13.550934 0.169108 -3.815352 3.117298 -0.208600 0.769020 0.144200 -4.805408 -0.542969 -6.676953 15.032830 -1.698115 2.097437 -19.042043 -0.672746 13.110535 5.648425 -4.079323 -10.601455 -10.684193 13.497808 56.500052 -7.378540 9.944140 12.697260 -11.575150 -10.788160 4.044014 -37.837331 -16.885575 3.479307 7.389816 -13.285468 -1.713564 -4.547444 2.548228 0.256310 0.565180 -0.503230 -0.112610 -0.114247 13.047806 5.832077 64.655146 35.435529 18.971527 56.890984 55.391107 26.040177 2.135428 -1.629360 -0.619660 0.310720 0.628310 -0.211860 
